<?xml version="1.0" encoding="utf-8"?>
<!-- Generator: Adobe Illustrator 17.0.0, SVG Export Plug-In . SVG Version: 6.00 Build 0)  -->
<!DOCTYPE svg PUBLIC "-//W3C//DTD SVG 1.1//EN" "http://www.w3.org/Graphics/SVG/1.1/DTD/svg11.dtd">
<svg version="1.1" id="Layer_1" xmlns="http://www.w3.org/2000/svg" xmlns:xlink="http://www.w3.org/1999/xlink" x="0px" y="0px"
	 width="1022px" height="607px" viewBox="0 0 1022 607" enable-background="new 0 0 1022 607" xml:space="preserve">
<g>
	<g>
		<path fill="#FFFFFF" d="M96.68,157.206c1.1-9.226,2.47-17.249,3.704-21.749c1.231-4.497,2.668-9.089,4.304-13.772
			c1.639-4.678,3.034-9.031,4.833-12.77c8.943-18.585,19.083-32.86,35.104-49.929c1.832-1.952,3.689-3.899,5.772-5.668
			c2.075-1.76,4.185-3.181,6.338-4.244c2.145-1.068,3.775-1.657,4.898-1.771c8.237,0.572,15.825,1.63,22.756,3.178
			c5.782,1.385,11.187,3.23,16.225,5.538c5.03,2.305,7.763,5.553,8.19,9.742c0.286,2.794,0.324,6.672,0.128,11.626
			c-0.201,4.96-0.762,9.812-1.685,14.564c-0.931,4.749-2.33,8.983-4.204,12.702c-1.883,3.721-4.353,5.737-7.423,6.05
			c-3.077,0.313-5.826-1.1-8.262-4.237c-2.436-3.135-3.811-6.233-4.127-9.313c-0.257-2.51-0.368-4.967-0.33-7.371
			c0.033-2.401,0.078-4.731,0.132-6.997c-0.2-1.95-1.281-2.831-3.231-2.632c-4.189,0.427-8.421,2.487-12.7,6.164
			c-4.281,3.685-8.41,8.2-12.373,13.537c-3.973,5.346-7.64,11.133-10.918,17.41c-12.391,23.728-13.255,36.163-14.254,43.39
			c-1.228,8.888-1.899,18.082-0.929,27.569c0.4,3.916,1.162,8.632,2.294,14.157c1.127,5.533,2.587,10.815,4.371,15.848
			c1.784,5.044,3.767,9.283,5.955,12.726c2.185,3.443,4.674,5.024,7.467,4.738c1.114-0.113,3.968-1.884,8.557-5.318
			c4.582-3.431,9.599-7.541,15.035-12.33c5.436-4.789,10.656-9.621,15.66-14.507c5.001-4.883,8.63-8.715,10.886-11.484
			c3.197-4.556,7.394-9.782,12.578-15.676c5.177-5.884,10.527-11.511,16.05-16.873c5.518-5.359,11.048-9.945,16.582-13.757
			c5.536-3.807,10.254-5.917,14.17-6.317c1.95-0.197,3.654-0.089,5.111,0.325c1.452,0.422,2.28,1.607,2.479,3.556
			c0.23,2.236-0.598,4.505-2.478,6.812c-1.88,2.309-4.112,4.655-6.687,7.032c-2.58,2.382-5.075,4.898-7.485,7.54
			c-2.413,2.645-7.426,10.141-10.796,14.43c-3.37,4.305-7.19,9.062-11.45,14.292c-4.265,5.238-8.332,10.309-12.2,15.214
			c-3.876,4.911-6.56,8.289-8.064,10.136c-1.477,2.125-4.418,5.815-8.816,11.055c-4.403,5.251-9.428,10.635-15.07,16.143
			c-5.645,5.516-11.486,10.486-17.52,14.912c-6.042,4.424-11.569,6.896-16.596,7.409c-8.378,0.856-15.17,0.002-20.364-2.573
			c-5.205-2.572-8.926-6.396-12.675-10.133c-5.86-5.842-10.112-13.841-13.753-21.418c-1.469-3.057-4.159-13.107-5.015-17.294
			C92.729,196.705,93.876,180.725,96.68,157.206z"/>
		<path fill="#FFFFFF" d="M457.828,67.403c3.015,1.956,4.673,4.327,4.959,7.113c0.286,2.796-0.924,5.456-3.629,7.989
			c-2.702,2.536-6.714,4.073-12.014,4.613c-1.401,0.143-2.665,0.207-3.79,0.174c-1.133-0.024-2.411-0.104-3.833-0.24
			c-15.158,6.348-28.894,14.099-41.216,23.254c-4.187,3.253-6.198,7.053-6.031,11.407c0.162,4.362,0.437,8.226,0.341,11.605
			c-0.664,23.166-8.453,53.011-9.329,55.761c-0.937,2.941-6.879,15.516-9.341,20.424c-2.462,4.905-5.404,9.935-8.826,15.075
			c-3.429,5.154-7.332,9.565-11.074,13.832c-6.751,7.698-21.051,18.303-27.109,18.428c-6.609,0.136-12.668-1.815-18.314-3.206
			c-5.644-1.402-10.918-3.964-15.81-7.697c-3.75-3.565-7.426-7.772-11.025-12.626c-3.604-4.849-6.726-9.894-9.378-15.128
			c-2.647-5.228-4.873-10.433-6.671-15.611c-1.8-5.171-2.926-9.997-3.383-14.47c-0.513-5.022-0.452-9.896,0.198-14.621
			c0.642-4.719,0.741-9.31,0.284-13.782c-0.173-1.677,0.083-3.955,0.781-6.849c0.69-2.891,1.445-5.863,2.265-8.913
			c0.815-3.042,1.553-6.147,2.222-9.322c0.663-3.172,0.881-5.872,0.651-8.111c-0.2-1.95-1.082-4.399-2.656-7.344
			c-1.568-2.943-3.309-6.15-5.215-9.628c-1.909-3.467-3.672-6.959-5.299-10.461c-1.627-3.5-2.613-6.93-2.956-10.281
			c-1.113-10.888-0.937-19.513,0.532-25.871c1.467-6.352,4.057-11.345,7.781-14.974c3.716-3.621,8.261-6.131,13.619-7.526
			c5.363-1.395,11.392-2.436,18.093-3.12l19.268-1.969c2.512-0.257,6.946,0.348,13.306,1.815c6.35,1.469,13.236,3.938,20.648,7.414
			c7.404,3.476,14.372,8.126,20.894,13.946c6.519,5.829,11.197,12.971,14.038,21.42c0.843,2.737,2.189,5.564,4.04,8.477
			c1.847,2.918,4.306,4.215,7.381,3.899c1.114-0.113,1.936-0.338,2.472-0.673c10.491-5.023,20.716-9.876,30.677-14.561
			C435.336,72.386,446.156,69.167,457.828,67.403z M276.376,85.097c0.446,1.647,1.072,4.266,1.861,7.852
			c0.789,3.586,2.297,5.267,4.536,5.037c1.112-0.113,2.043-0.699,2.782-1.767c0.738-1.06,1.474-2.12,2.213-3.188
			c0.738-1.06,1.543-2.127,2.422-3.208c0.876-1.076,2.012-1.69,3.41-1.833c7.15,0.964,12.91,2.07,17.269,3.318
			c4.359,1.245,8.476,2.874,12.348,4.873c3.87,2.007,5.953,4.405,6.237,7.193c0.173,1.674-0.432,4.066-1.806,7.167
			c-1.377,3.102-2.382,5.68-3.02,7.716c0.2,1.958,0.956,3.149,2.27,3.577c1.314,0.433,2.243,0.618,2.808,0.559
			c2.788-0.284,6.177-0.981,10.155-2.095c3.973-1.108,7.779-2.553,11.406-4.34c3.629-1.779,6.729-3.861,9.309-6.24
			c2.575-2.379,3.726-4.963,3.44-7.757c-0.57-5.584-2.945-11.554-7.119-17.897c-4.18-6.347-9.35-12.095-15.518-17.247
			c-6.173-5.152-12.796-9.275-19.886-12.358c-7.085-3.089-13.706-4.316-19.845-3.687c-8.94,0.913-15.572,4.977-19.916,12.191
			C277.392,70.181,275.606,77.558,276.376,85.097z M371.13,138.476c-0.789-2.174-1.373-4.443-1.752-6.804
			c-0.386-2.355-1.692-3.424-3.926-3.197c-1.117,0.113-2.764,0.567-4.938,1.351c-6.726,3.228-13.452,6.456-20.173,9.679
			c-6.726,3.228-14.001,5.242-21.816,6.039c-3.351,0.343-5.613,3.048-6.79,8.102c-1.174,5.06-1.875,10.63-2.098,16.718
			c-0.225,6.095-0.123,11.939,0.309,17.535c0.427,5.606,0.719,9.096,0.86,10.491c0.573,5.592,2.529,10.959,5.878,16.117
			c3.345,5.16,7.394,7.499,12.145,7.012c5.301-0.54,10.12-3.787,14.453-9.731c4.325-5.941,8.175-12.472,11.54-19.59
			c3.362-7.115,6.214-13.753,8.548-19.919c2.329-6.165,4.135-9.871,5.42-11.134c1.393-2.956,2.068-6.697,2.031-11.21
			C370.785,145.428,370.884,141.61,371.13,138.476z"/>
		<path fill="#FFFFFF" d="M494.989,89.93c-1.044,4.21-1.495,7.193-3.063,15.044c-1.569,7.851-6.793,18.508-8.797,28.588
			c-2.004,10.08-4.879,39.891-6.1,47.209c-1.231,7.32-2.756,14.461-4.585,21.421c-1.829,6.958-4.174,12.983-7.042,18.069
			c-2.864,5.094-6.675,7.877-11.421,8.363c-2.236,0.227-4.389-0.111-6.452-1.037c-2.071-0.909-4.013-1.983-5.83-3.211
			c-1.817-1.22-3.277-2.418-4.386-3.573c-1.103-1.155-1.687-2.01-1.744-2.575c-0.17-1.674,0.72-4.019,2.665-7.039
			c3.316-6.266,5.513-13.686,6.615-22.264c1.094-8.575,3.212-16.834,6.356-24.773c0.387-1.733,0.512-3.294,0.368-4.695
			c0.199-9.046,1.691-18.647,4.462-28.81c2.773-10.157,6.532-19.569,11.293-28.243c0.441-1.168,0.798-3.183,1.077-6.033
			c0.653-7.402,2.633-14.235,5.947-20.5c3.308-6.263,6.789-12.258,10.435-17.996c1.447-2.401,3.45-6.204,6.031-11.407
			c2.567-5.197,5.702-10.457,9.391-15.773c3.689-5.311,7.855-10.113,12.493-14.396c4.644-4.286,9.895-6.723,15.76-7.323
			c4.743-0.483,9.4,0.239,13.975,2.168c4.57,1.931,10.343,4.376,11.739,5.463c1.396,1.087,1.445,1.377,2.44,2.821
			c0.995,1.452,2.004,3.045,3.026,4.771c1.025,1.733,2.033,3.326,3.028,4.771c0.995,1.452,1.505,2.319,1.534,2.592
			c0.257,2.512-0.608,11.71-1.382,19.609c-1.88,19.191-0.283,37.273,0.168,38.923c0.143,1.401,0.205,2.729,0.194,4
			c-0.014,1.274-0.414,43.571-0.128,46.357c0.683,6.704,2.748,31.747,4.018,37.256c1.265,5.52,2.244,11.622,2.93,18.323
			c0.4,3.913,1.269,7.633,2.62,11.16c1.346,3.532,2.18,6.833,2.493,9.902c0.23,2.236-0.122,4.392-1.034,6.455
			c-0.582,2.596-1.089,4.555-1.517,5.867c-0.433,1.317-0.89,2.347-1.377,3.104c-0.49,0.755-1.351,1.261-2.592,1.537
			c-1.244,0.265-2.983,0.516-5.214,0.743c-6.701,0.686-12.348-1.351-16.92-6.1c-4.578-4.752-8.28-10.647-11.119-17.7
			c-2.833-7.042-5-14.367-6.475-21.98c-1.486-7.605-2.483-13.925-2.997-18.952c-0.427-4.186-0.703-8.953-0.827-14.304
			c-0.121-5.344-0.514-11.227-1.17-17.655c-0.227-2.231-0.539-4.599-0.936-7.1c-0.4-2.499-0.709-4.861-0.936-7.1
			c-0.4-3.905-0.587-8.471-0.554-13.696c0.03-5.222,0.022-10.794-0.015-16.719c-0.042-5.92-0.098-11.977-0.165-18.178
			c-0.069-6.198-0.401-12.234-1.001-18.1c-0.086-0.838-0.186-1.815-0.3-2.931c-0.113-1.114-0.735-1.615-1.847-1.501
			c-1.401,0.143-2.758,1.341-4.076,3.591c-1.325,2.25-3.24,3.504-5.755,3.761c-1.398,0.143-2.961,2.068-4.698,5.77
			C501.854,69.61,498.329,76.456,494.989,89.93z"/>
		<path fill="#FFFFFF" d="M740.715,162.295c-0.896,3.35-2.114,6.921-3.559,10.732c-1.447,3.818-2.852,7.426-4.857,10.442
			c-7.16,10.774-25.605,27.654-29.197,31.128c-3.6,3.469-8.325,5.508-14.188,6.107c-2.512,0.257-17.294-0.773-17.851-0.716
			c-1.674,0.173-26.555-7.135-35.708-31.378c-2.597-6.879-7.318-33.806-7.94-40.89c-0.622-7.084-0.052-18.493,0.254-21.065
			c0.301-2.569,0.579-10.495,0.564-11.061c-0.205-7.514,0.271-14.556,1.378-21.727c1.099-7.161,1.961-14.591,2.592-22.271
			c0.379-4.549,4.822-23.526,5.926-28.962c0.515-2.537,0.728-5.292,1.28-8.172c0.555-2.875,1.245-5.768,2.078-8.675
			c0.825-2.904,1.566-5.381,2.205-7.42c1.38-5.784,3.326-9.509,5.841-11.177c2.507-1.668,5.44-2.675,8.791-3.015
			c1.95-0.2,4.479-0.313,7.583-0.353c3.099-0.035,6.023,0.306,8.778,1.007c2.75,0.712,5.219,2.08,7.404,4.111
			c2.18,2.039,3.474,5.009,3.874,8.917c0.513,5.025,0.529,10.036,0.052,15.017c-0.482,4.989-1.037,9.914-1.665,14.773
			c-0.633,4.865-1.225,9.437-1.772,13.725c-0.555,4.286-1.407,33.862-1.093,36.931c0.313,3.077,2.629,5.021,6.945,5.852
			c4.319,0.828,8.959,1.41,13.935,1.749c4.968,0.339,7.622,0.065,13.912,1.542c8.471,1.989,17.659,10.222,20.688,16.085
			C743.675,136.514,743.649,151.324,740.715,162.295z M680.815,137.308c-0.224,0.592-0.529,1.045-0.918,1.364
			c-0.392,0.322-0.558,0.764-0.502,1.318c0.429,4.189,1.024,8.646,1.788,13.359c0.762,4.727,1.912,9.053,3.445,12.982
			c1.525,3.938,3.545,7.118,6.054,9.539c2.501,2.431,5.569,3.455,9.201,3.083c1.95-0.2,4.531-1.875,7.739-5.025
			c3.205-3.145,4.637-6.399,4.294-9.75c-0.057-0.557-0.165-0.898-0.316-1.022c-0.157-0.124-0.26-0.468-0.316-1.03
			c-1.987-2.897-3.855-5.953-5.591-9.163c-1.744-3.207-3.724-6.032-5.947-8.494c-2.228-2.448-4.889-4.365-7.993-5.742
			C688.651,137.351,685.004,136.878,680.815,137.308z M744.519,147.728"/>
		<path fill="#FFFFFF" d="M4.039,439.314c1.164-8.255,5.617-21.661,7.254-26.344c1.639-4.681,3.091-9.007,4.833-12.77
			c4.408-9.526,21.55-36.309,35.107-49.929c1.889-1.898,3.687-3.902,5.766-5.67c2.077-1.758,4.185-3.178,6.341-4.241
			c2.145-1.068,3.778-1.66,4.898-1.773c8.237,0.574,15.825,1.63,22.756,3.18c5.782,1.385,11.187,3.23,16.225,5.535
			c5.03,2.307,7.761,5.556,8.19,9.745c0.284,2.794,0.324,6.669,0.131,11.623c-0.203,4.962-0.765,9.812-1.688,14.566
			c-0.931,4.749-2.33,8.983-4.204,12.699c-1.882,3.724-4.353,5.737-7.423,6.053c-3.077,0.313-5.826-1.1-8.262-4.237
			s-3.811-6.235-4.127-9.313c-0.257-2.512-0.368-4.969-0.33-7.373c0.033-2.399,0.081-4.729,0.132-6.995
			c-0.2-1.953-1.281-2.831-3.231-2.632c-4.189,0.429-8.421,2.484-12.703,6.164c-4.279,3.685-8.407,8.197-12.373,13.535
			c-3.968,5.346-7.638,11.134-10.915,17.41c-9.731,18.633-12.052,29.825-13.904,39.051c-1.765,8.798-2.246,22.423-1.277,31.91
			c0.4,3.916,1.159,8.632,2.291,14.157c1.127,5.533,2.587,10.812,4.371,15.848c1.784,5.041,3.765,9.283,5.957,12.723
			c2.182,3.446,4.671,5.027,7.465,4.74c1.114-0.113,3.968-1.884,8.557-5.318c4.582-3.431,9.598-7.544,15.035-12.332
			c5.436-4.786,10.656-9.618,15.66-14.507c5.001-4.881,8.631-8.712,10.889-11.481c3.197-4.559,7.391-9.784,12.576-15.676
			c5.18-5.884,10.529-11.511,16.05-16.873c5.517-5.359,11.046-9.945,16.584-13.757c5.534-3.807,10.254-5.917,14.165-6.317
			c1.953-0.197,3.656-0.089,5.114,0.325c1.452,0.419,2.28,1.604,2.479,3.556c0.227,2.236-0.598,4.503-2.478,6.812
			c-1.88,2.309-4.112,4.655-6.687,7.032c-2.58,2.379-5.075,4.898-7.482,7.54c-2.415,2.645-7.429,10.141-10.802,14.43
			c-3.367,4.302-7.188,9.065-11.448,14.292c-4.265,5.238-8.332,10.306-12.2,15.211c-3.876,4.913-6.56,8.289-8.064,10.136
			c-1.477,2.128-4.418,5.818-8.816,11.061c-4.403,5.248-9.428,10.632-15.068,16.14c-5.647,5.516-11.486,10.483-17.523,14.912
			c-6.042,4.424-11.569,6.893-16.593,7.409c-8.378,0.856-15.172-0.001-20.37-2.576c-5.2-2.57-9.428-5.947-12.672-10.133
			c-3.25-4.176-9.725-12.03-12.36-19.171c-3.364-9.118-5.975-20.181-6.691-27.426C2.184,490.273,2.276,451.816,4.039,439.314z"/>
		<path fill="#FFFFFF" d="M401.04,431.553c-1.515,7.496-3.452,15.026-5.813,22.601c-2.358,7.583-4.438,15.131-6.229,22.646
			c-1.014,4.059-13.196,51.392-13.091,93.601c0.013,5.053-2.074,19.097-7.237,24.443c-5.219,5.404-9.369,7.645-19.002,8.708
			c-9.456,1.043-17.383-5.031-18.754-6.013c-1.371-0.995-8.697-5.627-14.1-14.59c-7.802-12.942-9.365-25.057-12.959-46.664
			c-1.703-10.238-1.92-20.891-2.6-31.687c-0.683-10.79-1.144-21.534-1.391-32.238c-0.237-5.052-0.519-10.592-0.851-16.628
			c-0.34-6.031,0.215-12.85,0.839-18.59c0.829-7.623,7.19-39.112,5.8-69.464c-0.106-2.306-1.469-6.5-2.248-8.679
			c-0.776-2.177-0.003-6.493-2.318-6.535c-4.261-0.077-7.731,2.342-9.264,3.908c-1.533,1.571-22.783,30.408-23.644,31.617
			c-0.868,1.222-2.11,2.587-3.363,4.366c-1.366,1.94-20.065,39.085-20.923,41.708c-1.055,3.494-13.099,26.102-19.246,49.796
			c-1.597,6.156-4.028,11.698-6.752,16.774c-2.727,5.078-6.316,9.318-10.759,12.736c-4.452,3.42-10.441,5.511-17.98,6.281
			c-7.54,0.77-14.981-1.453-20.923-8.022c-4.528-5.006-8.625-10.352-10.986-24.471c-1.162-6.948-1.898-14.204-1.03-21.238
			c0.926-7.51,1.44-12.974,2.294-19.746c0.455-3.611,2.161-13.076,3.074-16.182c1.431-4.865,2.399-11.78,3.262-14.403
			c0.855-2.628,2.863-9.85,4.118-12.803c1.245-2.945,2.679-6.199,4.292-9.75c1.61-3.55,3.436-7.823,5.462-12.834
			c2.389-4.189,10.228-24.197,17.461-34.158c1.996-2.748,5.198-4.342,8.281-5.927c3.08-1.584,6.193-2.887,9.336-3.917
			c3.135-1.019,5.966-1.668,8.478-1.924c8.378-0.856,17.134,0.651,26.277,4.511c3.242,1.361,6.169,3.813,8.792,7.353
			c2.617,3.543,4.906,5.216,6.862,5.016c1.647-0.449,3.345-1.752,5.103-3.91c1.75-2.147,3.753-4.679,5.995-7.594
			c2.242-2.91,4.708-5.699,7.399-8.376c2.689-2.669,5.509-4.721,8.471-6.154c2.702-1.125,5.598-3.391,8.702-6.815
			c3.101-3.416,6.287-5.298,9.566-5.634c6.094-0.62,11.968,0.473,17.614,3.281c5.646,2.805,8.804,7.424,9.458,13.845
			c0.237,7.88,0.617,15.744,1.141,23.584c0.516,7.851-0.51,15.715-3.091,23.592c-1.001,4.059-1.419,8.898-1.269,14.523
			c0.154,5.633-4.62,62.475-4.483,67.962c0.137,5.49-0.174,9.501-0.03,14.774c0.149,5.474,0.663,12.555,1.117,17.02
			c0,0,1.264,18.404,1.605,21.467c2.473,22.233,9.213,45.757,9.975,47.653c0.762,1.896,1.575,3.652,2.448,5.253
			c0.871,1.606,1.591,2.378,2.154,2.322c1.401-0.143,2.797-2.405,4.201-6.778c23.984-74.69,23.699-112.251,24.297-116.121
			c0.593-3.87,1.748-7.161,3.46-9.879c3.44-5.143,6.192-10.786,8.262-16.925c2.069-6.139,5.527-11.844,10.376-17.141
			c0.838-0.086,1.728,0.243,2.655,0.998c0.622,0.506,1.276,1.42,1.982,2.761c0.706,1.341,1.187,3.261,1.443,5.774
			c0.23,2.242,0.227,5.057,0.005,8.465C402.537,422.512,401.963,426.666,401.04,431.553z M254.757,362.276
			c-3.331-2.199-6.947-3.1-10.855-2.7c-3.351,0.343-6.463,1.651-9.336,3.92c-6.215,5.432-11.638,11.768-16.255,19.009
			c-4.622,7.247-8.626,14.994-12.015,23.236c-3.39,8.248-6.267,16.724-8.618,25.429c-2.357,8.705-4.117,17.07-5.267,25.086
			c-0.254,0.308-0.333,0.879-0.246,1.717c0.057,0.562,0.258,1.178,0.61,1.843c0.346,0.671,0.802,0.975,1.364,0.918
			c0.838-0.086,2.314-1.507,4.432-4.263c2.113-2.753,4.318-6.01,6.62-9.774c2.294-3.761,4.517-7.582,6.657-11.473
			c2.142-3.883,3.793-7.014,4.966-9.394c2.583-5.059,5.34-9.856,8.263-14.388c2.921-4.529,6.151-8.81,9.694-12.844
			c3.035-3.41,15.842-23.055,17.203-26.3c1.361-3.245,2.486-6.038,3.376-8.388c-0.03-0.276-0.122-0.479-0.273-0.611
			C254.917,363.177,254.814,362.839,254.757,362.276z"/>
		<path fill="#FFFFFF" d="M445.351,516.963c-0.879,2.483-5.051,25.129-4.651,29.042c0.084,0.838,0.237,1.67,0.466,2.492
			c0.222,0.822,0.38,1.651,0.466,2.489c0.17,1.677-0.709,2.75-2.634,3.234c-1.928,0.473-3.451,0.773-4.562,0.886
			c-5.59,0.573-9.786,0.154-12.614-1.25c-2.82-1.404-4.52-4.902-5.09-10.484c-0.116-1.12-0.201-2.665-0.263-4.626
			c-0.057-1.971,0.019-3.956,0.239-5.952c0.219-1.998,0.612-3.732,1.161-5.198c0.557-1.474,11.548-34.68,13.095-37.524
			c1.545-2.834,2.44-4.408,2.694-4.719c0.722-1.198,27.916-58.15,28.611-59.634c2.44-6.455,4.108-12.2,5.009-17.23
			c0.898-5.027,1.02-10.751,0.363-17.179c-0.316-3.069-0.789-6.268-1.402-9.59c-0.624-3.324-5.797-20.784-7.08-27.848
			c-1.289-7.064-2.61-13.763-3.959-20.118c-1.357-6.35-3.033-11.683-5.02-15.994c-1.995-4.308-4.806-6.284-8.433-5.914
			c-2.515,0.257-5.919,2.159-10.213,5.701c-4.289,3.547-7.999,6.604-11.123,9.181c-2.572-0.303-5.847-1.31-9.832-3.017
			c-3.981-1.712-6.06-3.405-6.233-5.079c-0.057-0.557,1.27-2.1,3.972-4.639c2.705-2.528,6.167-5.213,10.394-8.047
			c4.222-2.825,8.682-5.467,13.368-7.925c4.684-2.447,8.983-3.881,12.896-4.281c3.351-0.343,7.191-0.026,11.523,0.94
			c4.33,0.974,8.424,2.386,12.285,4.25c3.853,1.864,7.214,4.336,10.07,7.433c2.853,3.094,12.152,27.821,12.209,28.378
			c1.652,2.375,3.399,20.815,5.243,22.319c1.847,1.506,3.61,2.172,5.284,1.999c1.95-0.2,3.835-1.095,5.65-2.695
			c1.807-1.59,3.53-3.385,5.163-5.392c1.628-2.001,9.711-12.632,11.551-15.358c1.837-2.726,4.982-8.133,7.646-11.506
			c3.512-4.449,8.161-9.516,13.194-14.02c0.205-0.183,4.478-4.849,6.487-7.315c2.004-2.463,4.198-5.154,6.583-8.08
			c2.378-2.923,4.787-5.57,7.23-7.933c2.437-2.369,4.214-3.604,5.333-3.72c2.234-0.227,5.38,0.232,9.453,1.365
			c4.062,1.136,8.106,2.699,12.116,4.681c4.013,1.993,7.555,4.241,10.635,6.746c3.075,2.51,4.729,4.879,4.959,7.11
			c0.143,1.403-0.863,2.626-3.008,3.694c-2.153,1.065-3.924,1.673-5.319,1.817c-7.537,0.77-14.617,3.33-21.221,7.683
			c-6.612,4.35-12.999,9.462-19.171,15.321c-6.174,5.87-12.165,12.135-17.972,18.811c-5.812,6.681-14.052,13.634-17.616,18.136
			c-3.561,4.498-12.183,15.389-13.151,18.32c-0.971,2.928-1.14,7.475-0.514,13.63c0.659,6.439,1.546,14.188,1.898,20.336
			c0.447,7.812,1.641,13.578,3.394,19.01c0.95,2.944,2.412,8.421,4.715,12.994c2.301,4.578,4.411,7.36,7.932,11.387
			c3.513,4.024,7.459,7.436,11.84,10.244c4.373,2.808,8.659,3.998,12.848,3.568c5.027-0.513,10.02-2.716,14.985-6.61
			c4.957-3.896,9.808-8.197,14.549-12.915c4.736-4.716,9.305-8.992,13.716-12.829c4.4-3.837,8.557-5.954,12.47-6.353
			c0.838-0.086,1.966-0.057,3.394,0.076c1.423,0.141,2.209,0.906,2.35,2.302c0.343,3.348-0.389,6.532-2.199,9.534
			c-1.809,3.012-3.862,5.687-6.164,8.036c-2.296,2.35-4.471,4.551-6.518,6.592c-2.053,2.047-3.271,3.93-3.656,5.664
			c-0.978,4.284-3.233,7.715-6.777,10.301c-3.546,2.586-7.486,4.786-11.811,6.611c-5.977,2.277-11.532,5.204-16.666,8.777
			c-5.137,3.581-10.502,5.648-16.083,6.218c-5.025,0.513-9.825-0.191-14.395-2.122c-4.575-1.926-8.845-4.387-12.815-7.371
			c-3.975-2.978-7.961-5.857-11.122-9.442c-5.834-6.616-15.131-16.274-24.64-40.231c-0.673-1.695-1.864-2.349-2.978-2.233
			c-2.236,0.227-4.269,1.705-6.108,4.433c-1.834,2.728-3.478,6.003-4.92,9.813c-1.447,3.818-2.817,7.63-4.124,11.426
			c-1.304,3.802-2.543,6.89-3.706,9.264c-2.838,5.368-4.796,11.073-5.873,17.107C452.08,499.98,446.219,514.481,445.351,516.963z"/>
		<path fill="#FFFFFF" d="M892.269,338.825c0.825-0.224,1.51-0.366,2.073-0.423c1.95-0.2,3.765-1.792,5.439-4.786
			c1.664-2.988,3.495-6.495,5.486-10.505c1.983-4.013,4.19-7.974,6.614-11.893c2.418-3.91,12.692-15.19,16.192-19.641
			c3.495-4.445,7.615-8.96,12.372-13.54c4.749-4.572,10.265-8.594,16.545-12.058c6.272-3.461,13.04-5.565,20.303-6.308
			c2.788-0.286,5.48-0.204,8.065,0.235c2.585,0.444,5.195,0.879,7.776,1.533c10.273,2.603,18.412,12.439,19.91,14.682
			c1.501,2.247,2.761,4.505,3.661,6.821c0.567,1.459,1.738,6.086,1.847,8.518c0.264,5.89,0.269,9.463-0.449,17.578
			c-0.726,8.118-2.295,15.544-4.708,22.277c-1.972,5.565-4.331,10.811-7.068,15.751c-2.743,4.932-12.105,24.187-21.836,40.085
			c-1.245,2.035-2.957,6.544-4.153,8.634c-1.201,2.101-3.748,6.096-5.268,7.8c-1.52,1.706-10.821,13.035-16.095,16.456
			c-4.268,2.769-9.16,5.591-14.812,8.284c-5.65,2.693-11.269,5.034-16.849,7.013c-5.582,1.984-9.772,3.115-12.561,3.399
			c-1.955,0.2-3.891-0.092-5.803-0.888c-1.92-0.79-3.853-1.088-5.803-0.888c-1.958,0.2-3.485,1.837-4.578,4.909
			c-1.101,3.077-1.921,6.758-2.47,11.044c-0.552,4.292-0.818,8.551-0.81,12.78c0.01,4.235,0.144,7.606,0.4,10.118
			c0.227,2.231,3.2,18.872,4.777,27.026c1.301,6.725,6.494,21.985,13.928,40.048c1.052,2.556,2.214,5.13,2.53,8.208
			c0.17,1.674,0.356,3.489,0.556,5.446c0.197,1.947-0.107,3.82-0.911,5.594c-0.811,1.777-2.271,3.333-4.388,4.682
			c-2.123,1.339-5.42,2.247-9.882,2.703c-2.515,0.257-5.012-0.694-7.484-2.836c-2.482-2.145-4.752-5.086-6.828-8.824
			c-2.074-3.743-3.866-8.143-5.369-13.206c-1.508-5.071-2.667-8.043-3.839-12.613c-0.558-2.178-3.559-15.24-7.201-35.356
			c-0.546-3.014-3.553-37.513-3.163-39.246c-0.227-2.231-2.844-38.86-3.163-39.249c-0.324-0.389-0.138-10.286-1.828-11.665
			c-1.693-1.377-2.593-2.624-2.709-3.743c-0.084-0.838,0.639-2.036,2.169-3.607c1.534-1.566,2.229-3.045,2.088-4.446
			c-0.113-1.112-0.692-2.607-1.73-4.481c-1.035-1.864-1.654-3.778-1.854-5.733c-0.343-3.351-0.194-6.044,0.442-8.086
			c0.641-2.036,1.458-3.675,2.464-4.911c0.996-1.225,1.887-2.235,2.652-3.022c0.768-0.776,1.091-1.729,0.978-2.849
			c-0.143-1.393-0.819-2.458-2.017-3.181c-1.206-0.722-2.363-2.434-3.488-5.147c0.855-2.626,1.756-5.606,2.681-8.948
			c0.931-3.334,1.25-6.404,0.967-9.2c-0.286-2.786-5.757-85.327-5.927-87.003c-0.23-2.231-0.348-4.757-0.351-7.58
			c-0.01-2.818,0.279-5.533,0.861-8.132c0.582-2.599,1.473-4.872,2.688-6.835c1.209-1.952,2.931-3.049,5.167-3.278
			c1.95-0.197,4.58-0.044,7.879,0.465c3.291,0.509,6.431,1.534,9.411,3.06c2.975,1.534,5.664,3.653,8.057,6.371
			c2.396,2.721,3.804,6.169,4.234,10.358c0.286,2.796-0.013,6.078-0.9,9.829c-0.885,3.762-1.972,7.61-3.263,11.55
			c-1.29,3.943-3.769,33.541-4.946,38.595c-1.174,5.06-1.76,10.413-1.745,16.051c0.143,1.401,0.807,12.053,0.95,13.443
			C888.236,336.63,891.447,339.058,892.269,338.825z M927.654,330.978c-0.852,1.36-6.828,16.717-8.775,19.729
			c-1.953,3.026-7.484,13.112-8.659,16.76c-1.18,3.648-2.321,7.712-3.409,12.196c-1.096,4.492-1.975,9.024-2.63,13.602
			c-0.663,4.584-0.834,8.41-0.521,11.482c0.2,1.955,0.659,4.373,1.378,7.261c0.719,2.891,2.19,4.222,4.429,3.992
			c0.554-0.057,3.365-0.83,8.435-2.341c5.063-1.503,10.693-3.698,16.889-6.594c6.193-2.887,12.586-6.191,17.886-11.352
			c23.872-23.245,28.21-43.51,29.474-49.143c1.256-5.633,2.434-12.024,3.541-19.193c1.099-7.166,1.915-14.377,2.446-21.625
			c0.528-7.25,0.578-12.967,0.151-17.156c-0.343-3.353-1.395-5.363-3.155-6.026c-1.76-0.668-3.9-0.877-6.412-0.617
			c-4.751,0.484-9.2,2.498-13.352,6.021c-4.154,3.534-8.196,7.47-12.124,11.82c-3.932,4.356-7.742,8.478-11.431,12.383
			C938.122,316.087,928.501,329.623,927.654,330.978z"/>
		<path fill="#FFFFFF" d="M870.223,383.65c-1.515,7.496-3.452,15.026-5.813,22.601c-2.358,7.583-4.438,15.131-6.229,22.646
			c-1.014,4.059-13.196,51.392-13.091,93.601c0.013,5.053-2.074,19.097-7.237,24.443c-5.219,5.404-9.369,7.645-19.002,8.708
			c-9.456,1.043-17.383-5.031-18.754-6.013c-1.371-0.995-8.697-5.627-14.1-14.59c-7.802-12.943-9.365-25.057-12.958-46.664
			c-1.703-10.238-1.92-20.891-2.6-31.687c-0.683-10.79-1.144-21.534-1.391-32.238c-0.237-5.052-0.519-10.592-0.851-16.628
			c-0.34-6.031,0.215-12.85,0.839-18.59c0.829-7.623,7.19-39.112,5.8-69.464c-0.106-2.307-1.469-6.5-2.248-8.679
			c-0.776-2.177-0.003-6.493-2.318-6.535c-4.261-0.077-7.731,2.342-9.264,3.908c-1.533,1.571-22.783,30.408-23.644,31.617
			c-0.868,1.222-2.11,2.587-3.363,4.366c-1.366,1.94-20.065,39.085-20.923,41.708c-1.055,3.494-13.099,26.102-19.246,49.796
			c-1.597,6.156-4.028,11.698-6.752,16.774c-2.727,5.078-6.316,9.318-10.759,12.736c-4.452,3.42-10.441,5.511-17.98,6.281
			s-14.981-1.453-20.923-8.022c-4.528-5.006-8.625-10.352-10.986-24.471c-1.162-6.948-1.898-14.204-1.03-21.238
			c0.926-7.51,1.44-12.974,2.294-19.746c0.456-3.611,2.161-13.076,3.074-16.182c1.431-4.865,2.399-11.78,3.262-14.403
			c0.855-2.628,2.863-9.85,4.118-12.803c1.245-2.945,2.679-6.199,4.292-9.75c1.61-3.55,3.436-7.823,5.462-12.834
			c2.389-4.189,10.228-24.197,17.461-34.158c1.996-2.748,5.198-4.342,8.281-5.927c3.08-1.584,6.193-2.887,9.336-3.917
			c3.135-1.019,5.966-1.668,8.478-1.924c8.378-0.856,17.134,0.651,26.277,4.511c3.242,1.361,6.169,3.813,8.792,7.353
			c2.617,3.543,4.906,5.216,6.862,5.016c1.647-0.449,3.346-1.752,5.103-3.91c1.75-2.147,3.753-4.679,5.995-7.594
			c2.242-2.91,4.708-5.699,7.399-8.376c2.689-2.669,5.509-4.721,8.471-6.154c2.702-1.125,5.598-3.391,8.702-6.815
			c3.101-3.416,6.287-5.298,9.566-5.634c6.094-0.62,11.968,0.473,17.614,3.281c5.646,2.805,8.804,7.424,9.458,13.844
			c0.237,7.88,0.617,15.744,1.141,23.584c0.516,7.851-0.51,15.715-3.091,23.592c-1.001,4.059-1.419,8.898-1.269,14.523
			c0.154,5.633-4.62,62.475-4.483,67.962c0.137,5.49-0.174,9.501-0.03,14.774c0.149,5.474,0.663,12.555,1.117,17.02
			c0,0,1.264,18.403,1.605,21.467c2.473,22.233,9.213,45.757,9.975,47.653c0.762,1.896,1.575,3.652,2.448,5.253
			c0.871,1.606,1.591,2.378,2.153,2.322c1.401-0.143,2.797-2.405,4.201-6.778c23.984-74.69,23.699-112.251,24.297-116.121
			c0.593-3.87,1.748-7.161,3.46-9.879c3.44-5.143,6.192-10.786,8.262-16.925c2.069-6.139,5.527-11.844,10.376-17.141
			c0.838-0.086,1.728,0.243,2.655,0.998c0.622,0.506,1.276,1.42,1.982,2.761c0.706,1.341,1.187,3.261,1.443,5.774
			c0.23,2.242,0.227,5.057,0.005,8.465C871.719,374.609,871.146,378.763,870.223,383.65z M723.94,314.373
			c-3.331-2.199-6.947-3.1-10.855-2.7c-3.351,0.343-6.463,1.651-9.336,3.92c-6.215,5.432-11.638,11.768-16.255,19.009
			c-4.622,7.247-8.626,14.994-12.016,23.236c-3.39,8.248-6.267,16.724-8.618,25.429c-2.357,8.705-4.117,17.07-5.267,25.086
			c-0.254,0.308-0.333,0.879-0.246,1.717c0.057,0.562,0.258,1.178,0.61,1.843c0.346,0.671,0.802,0.975,1.364,0.918
			c0.838-0.086,2.314-1.507,4.432-4.263c2.113-2.753,4.318-6.01,6.62-9.774c2.294-3.761,4.517-7.582,6.657-11.473
			c2.142-3.883,3.792-7.014,4.966-9.394c2.583-5.059,5.34-9.856,8.263-14.388c2.921-4.529,6.151-8.81,9.694-12.844
			c3.035-3.41,15.842-23.055,17.203-26.3c1.361-3.245,2.486-6.038,3.376-8.388c-0.03-0.276-0.122-0.479-0.273-0.611
			C724.1,315.274,723.997,314.936,723.94,314.373z"/>
	</g>
	<g>
		<path fill="#FFFFFF" d="M901.841,167.915c-0.741,3.885-1.984,6.788-3.724,8.706c-1.749,1.918-5.134,4.96-7.388,4.646
			c-1.788-0.249-3.229-0.626-5.869-3.365c-3.493-3.625-7.853-21.337-8.344-23.396c-0.491-2.053-0.795-3.865-0.922-5.427
			c-0.06-0.781-0.976-4.497-1.424-10.495c-0.314-4.208-0.161-6.964-0.307-8.809c-0.167-2.082-0.152-4.379,0.04-6.883
			c0.195-2.498,0.198-4.924,0.011-7.267c-0.052-0.649-0.135-1.266-0.247-1.843c-0.112-0.58-0.508-1.039-1.189-1.378
			c-0.261,0.02-0.517,0.075-0.772,0.158c-0.255,0.089-0.514,0.138-0.772,0.158c0.02,0.264-0.405,1.082-1.278,2.461
			s-1.864,2.932-2.969,4.654c-1.108,1.729-2.148,3.446-3.124,5.163c-0.976,1.711-1.622,3.041-1.941,3.98
			c-0.21,0.675-4.919,10.641-5.369,11.526c-0.454,0.89-5.545,10.951-6.756,13.797c-1.217,2.845-2.627,5.708-4.229,8.585
			c-1.605,2.877-3.494,5.453-5.671,7.718c-2.176,2.271-4.956,3.535-8.338,3.805c-3.124,0.247-6.334-0.603-9.633-2.573
			c-3.299-1.958-5.101-3.359-6.842-7.603c-1.96-4.778-2.818-10.597-2.992-14.79c-0.146-3.52-0.402-7.101-0.365-10.77
			c0.032-3.667,0.247-7.155,0.637-10.46c-0.009-0.129,0.043-1.082,0.167-2.863c0.121-1.777,0.172-4.006,0.155-6.69
			c-0.017-2.682-0.063-5.723-0.138-9.122c-0.075-3.397-0.25-6.854-0.528-10.368c-0.063-0.781-0.227-1.582-0.488-2.418
			c-0.261-0.827-0.425-1.631-0.488-2.412c-0.052-0.649,0.195-1.261,0.741-1.829c0.543-0.566,1.14-0.873,1.792-0.925
			c2.36,0.072,4.692,0.574,6.992,1.499c2.303,0.927,3.543,2.558,3.73,4.893c-0.032,7.836-0.146,15.448-0.342,22.844
			c-0.198,7.391,0.011,14.98,0.632,22.764c0.115,1.427,0.273,3.046,0.485,4.861c0.21,1.812,0.479,3.549,0.81,5.226
			c0.327,1.668,0.764,3.067,1.315,4.201c0.548,1.131,1.215,1.665,1.993,1.602c1.174-0.092,2.662-1.519,4.474-4.284
			c1.806-2.762,3.77-6.059,5.889-9.895c2.119-3.833,4.195-7.764,6.231-11.793c2.039-4.023,3.862-7.405,5.479-10.156
			c0.925-1.516,6.231-10.937,7.727-12.694c1.499-1.754,2.782-3.331,3.848-4.726c0.721-0.844,1.657-2.222,2.814-4.152
			c1.154-1.924,2.441-3.859,3.859-5.806c1.416-1.944,2.848-3.664,4.301-5.157c1.453-1.487,2.699-2.274,3.741-2.357
			c0.91-0.072,1.912-0.215,3.009-0.436c1.094-0.215,2.228-0.373,3.4-0.468c4.422-0.35,7.687,0.732,9.786,3.247
			c2.099,2.521,3.299,5.665,3.601,9.438c0.299,3.776-0.919,22.626-0.795,23.335c0.121,0.715,0.445,7.661,0.132,10.302
			c-0.316,2.645,0.907,13.877,1.548,16.97C898.57,153.94,901.106,166.919,901.841,167.915z"/>
	</g>
</g>
</svg>
